<mxfile host="app.diagrams.net" modified="2022-02-09T18:21:31.731Z" agent="5.0 (Windows)" etag="F4OC8VaAIfG6r37GcP7_" version="16.5.4" type="github">
  <diagram id="aU8_sV6LQhJX_xxcvupE" name="Page-1">
    <mxGraphModel dx="1038" dy="562" grid="1" gridSize="10" guides="1" tooltips="1" connect="1" arrows="1" fold="1" page="1" pageScale="1" pageWidth="850" pageHeight="1100" math="0" shadow="0">
      <root>
        <mxCell id="0" />
        <mxCell id="1" parent="0" />
        <mxCell id="tQ6nVM2sEoFAzmXEk4rd-10" value="employer" style="shape=umlActor;verticalLabelPosition=bottom;verticalAlign=top;html=1;outlineConnect=0;" vertex="1" parent="1">
          <mxGeometry x="40" y="260" width="30" height="60" as="geometry" />
        </mxCell>
        <mxCell id="tQ6nVM2sEoFAzmXEk4rd-11" value="adherent" style="shape=umlActor;verticalLabelPosition=bottom;verticalAlign=top;html=1;outlineConnect=0;" vertex="1" parent="1">
          <mxGeometry x="720" y="260" width="30" height="60" as="geometry" />
        </mxCell>
        <mxCell id="tQ6nVM2sEoFAzmXEk4rd-13" value="" style="whiteSpace=wrap;html=1;aspect=fixed;" vertex="1" parent="1">
          <mxGeometry x="100" width="580" height="580" as="geometry" />
        </mxCell>
        <mxCell id="tQ6nVM2sEoFAzmXEk4rd-14" value="&lt;div&gt;verifier disponibilite&lt;/div&gt;&lt;div&gt;&lt;br&gt;&lt;/div&gt;" style="rounded=1;whiteSpace=wrap;html=1;" vertex="1" parent="1">
          <mxGeometry x="330" width="120" height="30" as="geometry" />
        </mxCell>
        <mxCell id="tQ6nVM2sEoFAzmXEk4rd-15" value="organiser evenement" style="rounded=1;whiteSpace=wrap;html=1;" vertex="1" parent="1">
          <mxGeometry x="330" y="50" width="120" height="30" as="geometry" />
        </mxCell>
        <mxCell id="tQ6nVM2sEoFAzmXEk4rd-16" value="enregistrer emprunte" style="rounded=1;whiteSpace=wrap;html=1;" vertex="1" parent="1">
          <mxGeometry x="330" y="100" width="120" height="30" as="geometry" />
        </mxCell>
        <mxCell id="tQ6nVM2sEoFAzmXEk4rd-17" value="reserver cd rom" style="rounded=1;whiteSpace=wrap;html=1;" vertex="1" parent="1">
          <mxGeometry x="330" y="150" width="120" height="30" as="geometry" />
        </mxCell>
        <mxCell id="tQ6nVM2sEoFAzmXEk4rd-18" value="authentifier" style="rounded=1;whiteSpace=wrap;html=1;" vertex="1" parent="1">
          <mxGeometry x="330" y="210" width="120" height="30" as="geometry" />
        </mxCell>
        <mxCell id="tQ6nVM2sEoFAzmXEk4rd-19" value="inscrire" style="rounded=1;whiteSpace=wrap;html=1;" vertex="1" parent="1">
          <mxGeometry x="330" y="275" width="120" height="30" as="geometry" />
        </mxCell>
        <mxCell id="tQ6nVM2sEoFAzmXEk4rd-20" value="emprunter cd rom" style="rounded=1;whiteSpace=wrap;html=1;" vertex="1" parent="1">
          <mxGeometry x="330" y="350" width="120" height="30" as="geometry" />
        </mxCell>
        <mxCell id="tQ6nVM2sEoFAzmXEk4rd-21" value="payer cotisation" style="rounded=1;whiteSpace=wrap;html=1;" vertex="1" parent="1">
          <mxGeometry x="330" y="420" width="120" height="30" as="geometry" />
        </mxCell>
        <mxCell id="tQ6nVM2sEoFAzmXEk4rd-22" value="rendre cd rom" style="rounded=1;whiteSpace=wrap;html=1;" vertex="1" parent="1">
          <mxGeometry x="330" y="490" width="120" height="30" as="geometry" />
        </mxCell>
        <mxCell id="tQ6nVM2sEoFAzmXEk4rd-23" style="edgeStyle=orthogonalEdgeStyle;rounded=0;orthogonalLoop=1;jettySize=auto;html=1;exitX=0.5;exitY=1;exitDx=0;exitDy=0;" edge="1" parent="1" source="tQ6nVM2sEoFAzmXEk4rd-19" target="tQ6nVM2sEoFAzmXEk4rd-19">
          <mxGeometry relative="1" as="geometry" />
        </mxCell>
        <mxCell id="tQ6nVM2sEoFAzmXEk4rd-24" style="edgeStyle=orthogonalEdgeStyle;rounded=0;orthogonalLoop=1;jettySize=auto;html=1;exitX=0.5;exitY=1;exitDx=0;exitDy=0;" edge="1" parent="1" source="tQ6nVM2sEoFAzmXEk4rd-21" target="tQ6nVM2sEoFAzmXEk4rd-21">
          <mxGeometry relative="1" as="geometry" />
        </mxCell>
        <mxCell id="tQ6nVM2sEoFAzmXEk4rd-30" value="" style="endArrow=none;html=1;rounded=0;exitX=1;exitY=0.5;exitDx=0;exitDy=0;" edge="1" parent="1" source="tQ6nVM2sEoFAzmXEk4rd-19">
          <mxGeometry relative="1" as="geometry">
            <mxPoint x="480" y="289.5" as="sourcePoint" />
            <mxPoint x="720" y="290" as="targetPoint" />
          </mxGeometry>
        </mxCell>
        <mxCell id="tQ6nVM2sEoFAzmXEk4rd-36" value="" style="endArrow=none;html=1;rounded=0;" edge="1" parent="1" target="tQ6nVM2sEoFAzmXEk4rd-11">
          <mxGeometry relative="1" as="geometry">
            <mxPoint x="450" y="365" as="sourcePoint" />
            <mxPoint x="620" y="364.5" as="targetPoint" />
          </mxGeometry>
        </mxCell>
        <mxCell id="tQ6nVM2sEoFAzmXEk4rd-37" value="" style="endArrow=none;html=1;rounded=0;" edge="1" parent="1" target="tQ6nVM2sEoFAzmXEk4rd-11">
          <mxGeometry relative="1" as="geometry">
            <mxPoint x="450" y="435" as="sourcePoint" />
            <mxPoint x="620" y="434.5" as="targetPoint" />
          </mxGeometry>
        </mxCell>
        <mxCell id="tQ6nVM2sEoFAzmXEk4rd-39" value="" style="endArrow=none;html=1;rounded=0;" edge="1" parent="1">
          <mxGeometry relative="1" as="geometry">
            <mxPoint x="450" y="510" as="sourcePoint" />
            <mxPoint x="710" y="310" as="targetPoint" />
            <Array as="points">
              <mxPoint x="450" y="510" />
            </Array>
          </mxGeometry>
        </mxCell>
        <mxCell id="tQ6nVM2sEoFAzmXEk4rd-40" value="" style="endArrow=none;html=1;rounded=0;" edge="1" parent="1">
          <mxGeometry relative="1" as="geometry">
            <mxPoint x="450" y="20" as="sourcePoint" />
            <mxPoint x="720" y="290" as="targetPoint" />
          </mxGeometry>
        </mxCell>
        <mxCell id="tQ6nVM2sEoFAzmXEk4rd-47" value="" style="endArrow=none;html=1;rounded=0;entryX=0;entryY=0.5;entryDx=0;entryDy=0;" edge="1" parent="1" target="tQ6nVM2sEoFAzmXEk4rd-15">
          <mxGeometry relative="1" as="geometry">
            <mxPoint x="80" y="270" as="sourcePoint" />
            <mxPoint x="310" y="64.5" as="targetPoint" />
          </mxGeometry>
        </mxCell>
        <mxCell id="tQ6nVM2sEoFAzmXEk4rd-48" value="" style="endArrow=none;html=1;rounded=0;entryX=0;entryY=0.75;entryDx=0;entryDy=0;" edge="1" parent="1" target="tQ6nVM2sEoFAzmXEk4rd-16">
          <mxGeometry relative="1" as="geometry">
            <mxPoint x="80" y="270" as="sourcePoint" />
            <mxPoint x="300" y="230" as="targetPoint" />
          </mxGeometry>
        </mxCell>
        <mxCell id="tQ6nVM2sEoFAzmXEk4rd-60" value="inchude" style="endArrow=open;endSize=12;dashed=1;html=1;rounded=0;exitX=0;exitY=0.75;exitDx=0;exitDy=0;entryX=0;entryY=0.75;entryDx=0;entryDy=0;" edge="1" parent="1" source="tQ6nVM2sEoFAzmXEk4rd-21" target="tQ6nVM2sEoFAzmXEk4rd-18">
          <mxGeometry width="160" relative="1" as="geometry">
            <mxPoint x="120" y="364.5" as="sourcePoint" />
            <mxPoint x="280" y="364.5" as="targetPoint" />
            <Array as="points">
              <mxPoint x="130" y="360" />
            </Array>
          </mxGeometry>
        </mxCell>
        <mxCell id="tQ6nVM2sEoFAzmXEk4rd-65" value="include" style="endArrow=open;endSize=12;dashed=1;html=1;rounded=0;entryX=1;entryY=0.5;entryDx=0;entryDy=0;" edge="1" parent="1" target="tQ6nVM2sEoFAzmXEk4rd-18">
          <mxGeometry width="160" relative="1" as="geometry">
            <mxPoint x="450" y="80" as="sourcePoint" />
            <mxPoint x="610" y="80" as="targetPoint" />
            <Array as="points">
              <mxPoint x="550" y="150" />
            </Array>
          </mxGeometry>
        </mxCell>
        <mxCell id="tQ6nVM2sEoFAzmXEk4rd-66" value="includde" style="endArrow=open;endSize=12;dashed=1;html=1;rounded=0;entryX=0;entryY=0.5;entryDx=0;entryDy=0;exitX=0;exitY=0.75;exitDx=0;exitDy=0;" edge="1" parent="1" source="tQ6nVM2sEoFAzmXEk4rd-14" target="tQ6nVM2sEoFAzmXEk4rd-19">
          <mxGeometry x="0.2111" width="160" relative="1" as="geometry">
            <mxPoint x="340" y="260" as="sourcePoint" />
            <mxPoint x="500" y="260" as="targetPoint" />
            <Array as="points">
              <mxPoint x="130" y="260" />
            </Array>
            <mxPoint as="offset" />
          </mxGeometry>
        </mxCell>
      </root>
    </mxGraphModel>
  </diagram>
</mxfile>
